<svg width="128" height="128" viewBox="0 0 128 128" fill="none" xmlns="http://www.w3.org/2000/svg">
<circle cx="64" cy="64" r="64" fill="#F2F2F2" fill-opacity="0.66"/>
<circle cx="64" cy="64" r="64" fill="#0267CA" fill-opacity="0.1"/>
<circle cx="64" cy="64" r="58" stroke="#0555A4" stroke-width="12"/>
<path d="M28.3332 59.1077H35.4017L40.1199 52.9046C41.5001 51.1089 43.3104 50.5884 45.5 50L46.9064 44.1028C47.0728 43.4517 47.6607 42.9974 48.3332 43H68.8664C69.4223 43 69.9304 43.3131 70.1792 43.81L73 50C72.9823 49.9549 73.0223 50.0438 73 50C74.102 50.5034 75.2653 51.0009 76.125 51.8534L83.4216 59.1371L100.276 60.1327C102.104 60.2948 103.807 61.1322 105.051 62.4808C106.294 63.8301 106.989 65.5932 107 67.4262V75.2154C107 75.6037 106.845 75.9763 106.57 76.2509C106.295 76.5254 105.922 76.6797 105.533 76.6797H99.5344C99.0715 79.4306 97.3259 81.7977 94.8319 83.0562C92.3386 84.3146 89.3947 84.3146 86.9015 83.0562C84.4076 81.7978 82.662 78.4306 82.199 75.6797H48.201C47.7381 78.4306 45.9924 81.7977 43.4984 83.0562C41.0051 84.3146 38.0612 84.3146 35.5681 83.0562C33.0741 81.7978 31.3285 79.4306 30.8655 76.6797H22.4667C22.0777 76.6797 21.7045 76.5254 21.4295 76.2509C21.1545 75.9763 21 75.6037 21 75.2154V66.4293C21.0026 64.4884 21.7759 62.6272 23.1502 61.2544C24.5252 59.8823 26.3892 59.1104 28.3332 59.1077ZM21.9333 66.4294C21.9333 66.4294 23.797 66.4294 24.6945 66.4294C24.7429 66.4294 24.8666 66.3095 24.8666 66.2573C24.8666 64.1887 24.8666 61.3056 24.8666 61.3056C24.0115 61.6077 23.2709 63.1659 22.7459 63.904C22.2207 64.642 21.9372 65.5239 21.9333 66.4294ZM39.4598 54.6767L36.0865 59.1077H58.134V50.786H45.2986C43.009 50.7925 40.8512 52.8607 39.4598 54.6767ZM69.4279 48.8573L67.9613 45.9286H49.4813L48.748 48.8573H69.4279ZM77.0525 53.9296C75.6808 52.5529 73.8128 50.7808 71.8674 50.786H59.0675V59.1077H82.238L77.0525 53.9296ZM106.068 69.3581H99.668V66.4294H105.939C105.811 65.8852 105.44 64.6502 105 64C104.5 63.2605 104 62.5 103 62C101.747 61.3736 100.987 61.138 100.069 61.0497L82.7419 60.0364H59.0681V74.7511H82.1904C82.1904 74.7172 82.2094 73.6864 82.2166 73.6531C82.2965 73.2118 82.4104 72.7778 82.5571 72.3541C82.5833 72.2783 82.6127 72.2077 82.6409 72.126C82.7967 71.7096 82.984 71.3056 83.2007 70.9179C83.2328 70.8623 83.2681 70.8094 83.3002 70.7538C83.5333 70.3557 83.7985 69.9759 84.0912 69.619L84.116 69.5909C84.4126 69.2392 84.7367 68.911 85.0857 68.6096C85.125 68.5743 85.1604 68.5377 85.2003 68.5057C85.5434 68.2187 85.9075 67.9585 86.2898 67.7271C86.3547 67.6879 86.4175 67.648 86.4836 67.6101C86.8673 67.3891 87.2661 67.1963 87.6786 67.0355L87.8973 66.9551C88.3268 66.7995 88.7681 66.6779 89.2173 66.5903C89.2762 66.5785 89.3345 66.5726 89.3934 66.5622C90.3696 66.3843 91.3701 66.385 92.347 66.5628C92.4059 66.5733 92.4642 66.5792 92.5231 66.5909C92.9716 66.6785 93.413 66.7995 93.8431 66.9551L94.0618 67.0355C94.4743 67.1963 94.8737 67.3885 95.2568 67.6094C95.3229 67.6473 95.3857 67.6872 95.4506 67.7264C95.8329 67.9579 96.197 68.2187 96.5401 68.5057C96.5794 68.5377 96.6147 68.5743 96.6547 68.6096C97.003 68.911 97.3271 69.2392 97.6237 69.5909L97.6486 69.619C97.9412 69.9759 98.2064 70.3564 98.4395 70.7551C98.4716 70.8094 98.507 70.8624 98.5377 70.9179C98.7558 71.3056 98.9437 71.7089 99.0995 72.126C99.1277 72.2018 99.1565 72.2724 99.1833 72.3542C99.3293 72.7778 99.4433 73.2118 99.5231 73.6531C99.5231 73.6871 99.5434 75.7178 99.5493 75.7512H106.068L106.068 69.3581ZM90.868 81.0728C92.4237 81.0728 93.916 80.4556 95.0166 79.3574C96.1165 78.2585 96.7346 76.7686 96.7346 75.2154C96.7346 73.6622 96.1165 72.1723 95.0166 71.0734C93.9159 69.9752 92.4237 69.3581 90.868 69.3581C89.3123 69.3581 87.82 69.9752 86.7194 71.0734C85.6194 72.1723 85.0014 73.6622 85.0014 75.2154C85.0014 76.7686 85.6194 78.2585 86.7194 79.3574C87.8201 80.4556 89.3123 81.0728 90.868 81.0728ZM39.5349 81.0728C41.0906 81.0728 42.5828 80.4556 43.6834 79.3574C44.7834 78.2585 45.4015 76.7686 45.4015 75.2154C45.4015 73.6622 44.7834 72.1723 43.6834 71.0734C42.5828 69.9752 41.0905 69.3581 39.5349 69.3581C37.9792 69.3581 36.4869 69.9752 35.3863 71.0734C34.2863 72.1723 33.6682 73.6622 33.6682 75.2154C33.6682 76.7686 34.2863 78.2585 35.3863 79.3574C36.487 80.4556 37.9792 81.0728 39.5349 81.0728ZM30.8568 75.7511C30.8568 75.7171 30.8757 73.6863 30.8829 73.653C30.9628 73.2117 31.0767 72.7777 31.2234 72.3541C31.2496 72.2782 31.2791 72.2076 31.3072 72.1259C31.4631 71.7095 31.6503 71.3055 31.867 70.9178C31.8991 70.8623 31.9345 70.8093 31.9665 70.7537C32.1996 70.3556 32.4648 69.9758 32.7575 69.6189L32.7824 69.5908C33.079 69.2391 33.4031 68.9109 33.7521 68.6095C33.7914 68.5742 33.8267 68.5376 33.8667 68.5056C34.2098 68.2186 34.5738 67.9584 34.9562 67.727C35.021 67.6878 35.0839 67.6479 35.15 67.61C35.5337 67.389 35.9324 67.1962 36.3449 67.0354L36.5636 66.955C36.9931 66.7994 37.4344 66.6778 37.8836 66.5902C37.9425 66.5784 38.0008 66.5725 38.0597 66.5621C39.036 66.3843 40.0365 66.3849 41.0133 66.5627C41.0723 66.5732 41.1305 66.5791 41.1895 66.5908C41.638 66.6784 42.0793 66.7994 42.5095 66.955L42.7282 67.0354C43.1407 67.1962 43.5401 67.3884 43.9231 67.6093C43.9892 67.6473 44.0521 67.6871 44.1169 67.7264C44.4993 67.9578 44.8633 68.2186 45.2064 68.5056C45.2457 68.5376 45.2811 68.5742 45.321 68.6095C45.6693 68.9109 45.9934 69.2391 46.29 69.5908L46.3149 69.6189C46.6076 69.9758 46.8728 70.3563 47.1059 70.7551C47.1379 70.8093 47.1733 70.8623 47.2041 70.9178C47.4221 71.3055 47.61 71.7089 47.7659 72.1259C47.794 72.2018 47.8228 72.2724 47.8497 72.3541C47.9957 72.7777 48.1096 73.2118 48.1895 73.653C48.1967 73.687 48.2098 74.7177 48.2157 74.7511H58.1348V60.0364H27C26.7109 60 25.5125 60.5 25.5125 61.5V65.8937C25.5125 66.282 25 66.75 25 66.75C25 66.75 24.4348 67.0838 24.0459 67.0838H21.935V75.7511L30.8568 75.7511Z" fill="#0555A4"/>
<path d="M90.868 81.0728C92.4237 81.0728 93.916 80.4556 95.0166 79.3574C96.1165 78.2585 96.7346 76.7686 96.7346 75.2154C96.7346 73.6622 96.1165 72.1723 95.0166 71.0734C93.9159 69.9752 92.4237 69.3581 90.868 69.3581C89.3123 69.3581 87.82 69.9752 86.7194 71.0734C85.6194 72.1723 85.0014 73.6622 85.0014 75.2154C85.0014 76.7686 85.6194 78.2585 86.7194 79.3574C87.8201 80.4556 89.3123 81.0728 90.868 81.0728Z" fill="#0555A4"/>
<path d="M39.5349 81.0728C41.0906 81.0728 42.5828 80.4556 43.6834 79.3574C44.7834 78.2585 45.4015 76.7686 45.4015 75.2154C45.4015 73.6622 44.7834 72.1723 43.6834 71.0734C42.5828 69.9752 41.0905 69.3581 39.5349 69.3581C37.9792 69.3581 36.4869 69.9752 35.3863 71.0734C34.2863 72.1723 33.6682 73.6622 33.6682 75.2154C33.6682 76.7686 34.2863 78.2585 35.3863 79.3574C36.487 80.4556 37.9792 81.0728 39.5349 81.0728Z" fill="#0555A4"/>
<path d="M69.4279 48.8573L67.9613 45.9286H49.4813L48.748 48.8573H69.4279Z" fill="#0555A4"/>
<path d="M77.0525 53.9296C75.6808 52.5529 73.8128 50.7808 71.8674 50.786H59.0675V59.1077H82.238L77.0525 53.9296Z" fill="#2CA9E1"/>
<path d="M39.4598 54.6767L36.0865 59.1077H58.134V50.786H45.2986C43.009 50.7925 40.8512 52.8607 39.4598 54.6767Z" fill="#2CA9E1"/>
<path d="M106.068 69.3581H99.668V66.4294H105.939C105.811 65.8852 105.44 64.6502 105 64C104.5 63.2605 104 62.5 103 62C101.747 61.3736 100.987 61.138 100.069 61.0497L82.7419 60.0364H59.0681V74.7511H82.1904C82.1904 74.7172 82.2094 73.6864 82.2166 73.6531C82.2965 73.2118 82.4104 72.7778 82.5571 72.3541C82.5833 72.2783 82.6127 72.2077 82.6409 72.126C82.7967 71.7096 82.984 71.3056 83.2007 70.9179C83.2328 70.8623 83.2681 70.8094 83.3002 70.7538C83.5333 70.3557 83.7985 69.9759 84.0912 69.619L84.116 69.5909C84.4126 69.2392 84.7367 68.911 85.0857 68.6096C85.125 68.5743 85.1604 68.5377 85.2003 68.5057C85.5434 68.2187 85.9075 67.9585 86.2898 67.7271C86.3547 67.6879 86.4175 67.648 86.4836 67.6101C86.8673 67.3891 87.2661 67.1963 87.6786 67.0355L87.8973 66.9551C88.3268 66.7995 88.7681 66.6779 89.2173 66.5903C89.2762 66.5785 89.3345 66.5726 89.3934 66.5622C90.3696 66.3843 91.3701 66.385 92.347 66.5628C92.4059 66.5733 92.4642 66.5792 92.5231 66.5909C92.9716 66.6785 93.413 66.7995 93.8431 66.9551L94.0618 67.0355C94.4743 67.1963 94.8737 67.3885 95.2568 67.6094C95.3229 67.6473 95.3857 67.6872 95.4506 67.7264C95.8329 67.9579 96.197 68.2187 96.5401 68.5057C96.5794 68.5377 96.6147 68.5743 96.6547 68.6096C97.003 68.911 97.3271 69.2392 97.6237 69.5909L97.6486 69.619C97.9412 69.9759 98.2064 70.3564 98.4395 70.7551C98.4716 70.8094 98.507 70.8624 98.5377 70.9179C98.7558 71.3056 98.9437 71.7089 99.0995 72.126C99.1277 72.2018 99.1565 72.2724 99.1833 72.3542C99.3293 72.7778 99.4433 73.2118 99.5231 73.6531C99.5231 73.6871 99.5434 75.7178 99.5493 75.7512H106.068L106.068 69.3581Z" fill="#F6DCC9"/>
<path d="M30.8568 75.7511C30.8568 75.7171 30.8757 73.6863 30.8829 73.653C30.9628 73.2117 31.0767 72.7777 31.2234 72.3541C31.2496 72.2782 31.2791 72.2076 31.3072 72.1259C31.4631 71.7095 31.6503 71.3055 31.867 70.9178C31.8991 70.8623 31.9345 70.8093 31.9665 70.7537C32.1996 70.3556 32.4648 69.9758 32.7575 69.6189L32.7824 69.5908C33.079 69.2391 33.4031 68.9109 33.7521 68.6095C33.7914 68.5742 33.8267 68.5376 33.8667 68.5056C34.2098 68.2186 34.5738 67.9584 34.9562 67.727C35.021 67.6878 35.0839 67.6479 35.15 67.61C35.5337 67.389 35.9324 67.1962 36.3449 67.0354L36.5636 66.955C36.9931 66.7994 37.4344 66.6778 37.8836 66.5902C37.9425 66.5784 38.0008 66.5725 38.0597 66.5621C39.036 66.3843 40.0365 66.3849 41.0133 66.5627C41.0723 66.5732 41.1305 66.5791 41.1895 66.5908C41.638 66.6784 42.0793 66.7994 42.5095 66.955L42.7282 67.0354C43.1407 67.1962 43.5401 67.3884 43.9231 67.6093C43.9892 67.6473 44.0521 67.6871 44.1169 67.7264C44.4993 67.9578 44.8633 68.2186 45.2064 68.5056C45.2457 68.5376 45.2811 68.5742 45.321 68.6095C45.6693 68.9109 45.9934 69.2391 46.29 69.5908L46.3149 69.6189C46.6076 69.9758 46.8728 70.3563 47.1059 70.7551C47.1379 70.8093 47.1733 70.8623 47.2041 70.9178C47.4221 71.3055 47.61 71.7089 47.7659 72.1259C47.794 72.2018 47.8228 72.2724 47.8497 72.3541C47.9957 72.7777 48.1096 73.2118 48.1895 73.653C48.1967 73.687 48.2098 74.7177 48.2157 74.7511H58.1348V60.0364H27C26.7109 60 25.5125 60.5 25.5125 61.5V65.8937C25.5125 66.282 25 66.75 25 66.75C25 66.75 24.4348 67.0838 24.0459 67.0838H21.935V75.7511L30.8568 75.7511Z" fill="#F6DCC9"/>
<path d="M21.9333 66.4294C21.9333 66.4294 23.797 66.4294 24.6945 66.4294C24.7429 66.4294 24.8666 66.3095 24.8666 66.2573C24.8666 64.1887 24.8666 61.3056 24.8666 61.3056C24.0115 61.6077 23.2709 63.1659 22.7459 63.904C22.2207 64.642 21.9372 65.5239 21.9333 66.4294Z" fill="#E1715B"/>
<path d="M78.5005 66.3867H63.0419V69.6293H78.5005V66.3867Z" fill="#0555A4"/>
<path d="M53.7671 66.3867H49.1295V69.6293H53.7671V66.3867Z" fill="#0555A4"/>
</svg>
