<svg width="128" height="128" viewBox="0 0 128 128" fill="none" xmlns="http://www.w3.org/2000/svg">
<g clip-path="url(#clip0_347_1025)">
<circle cx="64" cy="64" r="64" fill="#F2F2F2" fill-opacity="0.66"/>
<circle cx="64" cy="64" r="64" fill="#0267CA" fill-opacity="0.1"/>
<path fill-rule="evenodd" clip-rule="evenodd" d="M74.2236 113.552C75.1584 115.414 75.8951 116.966 75.8608 117C75.8608 117 80.0158 116.638 82.985 115.681C85.9826 114.715 87.108 114.655 89.7796 112.984C92.573 111.237 95.1626 109.109 97.6195 106.912C100.007 104.777 101.348 103.548 103.369 101.061C104.94 99.1273 107.162 95.5081 107.162 95.5081H103.369C100.46 95.5721 96.6357 95.8391 96.6104 95.8265C96.585 95.8142 96.0006 91.8883 95.5722 86.847C95.0106 80.237 94.8719 77.585 95.0749 77.338C95.635 76.6569 97.7666 75.5912 99.1802 75.286C101.478 74.7896 104.675 75.1919 105.88 75.4306C106.244 75.5027 106.683 75.5704 107.162 75.6444C108.27 75.8154 109.591 76.0194 110.686 76.3852C111.713 76.7284 113.822 77.957 114.345 79.0049L114.867 80.0528C115.072 79.3539 115.516 78.23 115.913 76.9092C116.309 75.5884 116.819 73.2455 116.859 72.1937C116.958 69.574 117.02 69.6217 116.994 68.7872L114.867 67.7393L112.503 66.6915C109.516 65.4411 104.33 64.6958 100.792 65.1194C88.661 66.5712 76.9391 77.1342 72.5652 89.6592C71.2191 93.5144 70.8908 95.9352 71.0291 100.996C71.1783 106.462 71.7049 108.532 74.2236 113.552ZM85.6055 87.6491C85.0664 87.5726 85.1523 87.5068 85.1118 87.1906C85.0519 86.7218 85.7932 85.7383 87.5319 83.6434C88.3974 82.6002 89.1921 81.8339 89.2979 81.9406C89.3761 82.0193 89.5497 84.1202 89.8158 87.6491H85.6055ZM83.7381 97.7213H87.1663H90.5606C90.7638 100.447 90.7988 102.186 90.8611 102.385C91.0252 102.909 88.0941 104.819 85.6345 106.052C84.113 106.816 83.2825 107.1 82.4985 106.576C81.5556 105.946 81.2221 105.504 80.9305 104.481C80.7372 103.802 80.4874 102.887 80.437 101.282L80.6944 97.7213H83.7381Z" fill="#2CA9E1"/>
<path fill-rule="evenodd" clip-rule="evenodd" d="M113.364 84.0727C113.364 84.0727 114.155 82.3086 114.374 81.6354C114.278 81.925 113.364 84.0727 113.364 84.0727Z" fill="#2CA9E1"/>
<circle cx="64" cy="64" r="58" stroke="#0253A3" stroke-opacity="0.99" stroke-width="12"/>
<path d="M18.0105 51.2491C16.6306 55.6407 15.7554 62.5466 16.0608 66.6323C16.2929 69.7367 17.0803 74.2091 17.8803 76.9654C18.668 79.6793 20.4532 84.2809 21.1864 85.4866C21.6613 86.2675 21.7621 86.3048 23.3979 86.3048H25.1119V68.1876C25.1119 46.577 25.511 48.684 21.419 48.684H18.8163L18.0105 51.2491Z" fill="#FE8355"/>
<path d="M44.6292 36.0659C40.6283 36.7513 37.8543 37.9234 35.8813 39.7619C34.2905 41.2442 33.6735 42.5407 33.2223 45.3507C32.4291 50.2905 32.8683 54.9626 34.4806 58.7381C34.7292 59.3203 35.0435 60.062 35.3373 60.7594L35.7924 59.0834L36.328 57.4593L36.8635 54.2111L37.3991 50.9628L38.4702 48.1004C38.4702 48.1004 39.5267 46.4465 40.6124 46.0905C41.4082 45.8296 42.4536 45.5491 43.2902 45.5491H44.8969C45.527 45.5491 46.3152 45.4609 46.9866 45.3858C47.0952 45.3736 47.2008 45.3618 47.3022 45.3507C48.38 45.2333 49.7169 45.0077 49.7169 45.0077L51.8592 44.4664L54.9577 43.7729L57.7503 43.3836H59.357L60.021 43.7435C60.021 43.7435 59.9098 44.2259 59.9419 44.252C59.9937 44.294 60.021 44.3364 60.198 44.4186C60.375 44.5008 60.9922 44.6853 61.1505 44.6656C61.6746 44.6005 62.3026 43.5333 62.3026 42.6111C62.3026 41.2298 59.0783 39.0397 54.9577 37.6218C51.9436 36.5848 46.4399 35.7557 44.6292 36.0659Z" fill="black"/>
<path d="M35.9743 62.2795C37.7199 66.4805 41.4739 70.1965 45.0182 71.2314C49.4283 72.5193 53.6847 71.5037 56.3453 68.5288C57.8591 66.8362 58.5726 65.1096 59.1456 62.3082C59.5053 60.5499 59.7982 60.2036 60.198 60.2036C61.625 60.2036 62.3026 58.7581 62.3026 55.9914C62.3026 54.6976 62.1591 54.0019 61.7564 53.343C61.3999 52.76 60.9536 50.9393 60.4716 48.1004C60.1845 46.4104 60.0138 45.2549 59.9562 44.5605C59.9123 44.03 59.9796 43.8925 60.021 43.7435L59.357 43.3836H57.7503L54.9577 43.7729L51.8592 44.4664L49.7169 45.0077C49.7169 45.0077 48.38 45.2333 47.3022 45.3507C47.2008 45.3618 47.0952 45.3736 46.9866 45.3858C46.3152 45.4609 45.527 45.5491 44.8969 45.5491H43.2902C42.4536 45.5491 41.4082 45.8296 40.6124 46.0905C39.5267 46.4465 38.4702 48.1004 38.4702 48.1004L37.3991 50.9628L36.8635 54.2111L36.328 57.4593L35.7924 59.0834L35.3373 60.7594C35.5371 61.2336 35.7275 61.6873 35.8813 62.0563L35.9743 62.2795Z" fill="#FEEEE3"/>
<path d="M83.3493 97.6668L87.2613 97.7452H90.4367L89.6633 87.5666H86.2233L84.9278 87.5638C84.607 88.1914 83.7397 88.8359 83.3412 89.6788C82.6484 91.1445 81.8276 92.4391 81.2366 93.8881C80.3781 95.9928 80.4355 97.6668 80.4355 97.6668H83.3493Z" fill="#0555A4"/>
<path d="M37.7195 72.1077C35.0358 73.6736 31.7094 76.7754 30.0333 79.2749C27.7437 82.6895 26.5517 85.7767 25.8811 90.0289L25.4712 92.6271L26.1931 93.5805C27.4561 95.2482 31.5955 99.4044 33.6383 101.056C40.7434 106.801 48.8729 110.504 58.105 112.2C60.7682 112.69 69.1284 112.876 70.5611 112.477C71.2039 112.298 71.2865 112.173 71.1415 111.596C70.7274 109.946 67.4194 106.889 63.3009 104.351L60.7358 102.77V99.5067V96.2437H64.9291L71.1415 97.1496V93.7822C71.6166 90.1893 71.5153 90.7119 72.826 87.4608C73.3193 86.2374 74.992 83.942 74.9307 83.8807C74.8694 83.8194 71.0828 82.876 69.5117 82.3309C63.7841 80.3435 60.2031 78.3218 56.1182 74.7691C54.8083 73.6299 53.5442 72.5424 53.3087 72.3522C52.953 72.0651 52.6752 72.0764 51.6689 72.4179C49.102 73.2895 44.3597 72.7839 41.8281 71.369C41.194 71.0146 40.5421 70.7255 40.3795 70.7266C40.217 70.7274 39.0199 71.349 37.7195 72.1077Z" fill="#0555A4"/>
<path d="M71.1415 93.7822V97.1496H75.2056L80.4355 97.6668C80.4355 97.6668 80.3781 95.9928 81.2366 93.8881C81.8276 92.4391 82.6484 91.1445 83.3412 89.6788C83.7397 88.8359 84.607 88.1914 84.9278 87.5638L77.8364 85.3582L74.9307 83.8807C74.992 83.942 73.3193 86.2374 72.826 87.4608C71.5153 90.7119 71.6166 90.1893 71.1415 93.7822Z" fill="#2CA9E1"/>
<path d="M96.0778 95.5352C96.0523 95.5229 95.6784 91.3701 95.2472 86.3073L89.6633 87.5666L90.4367 97.7452L96.0778 95.5352Z" fill="#2CA9E1"/>
</g>
<defs>
<clipPath id="clip0_347_1025">
<rect width="128" height="128" fill="white"/>
</clipPath>
</defs>
</svg>
